# File created by Blade
# Date/Time:  Tue Apr 07 21:12:38 2015
# Frame Rate: 120.000 fps
#------------------------------------------------------
:FULLY-SPECIFIED
:DEGREES
588
root 25.026032 17.067192 9.665045 473.921826 -86.030492 -409.622614
Spine 57.111084 2.226125 5.834347
Head -43.550616 -4.363407 6.362474
LeftShoulder 0.732576 6.649617 42.175086
LeftArm 119.283507 -22.065488 -122.261756
LeftForeArm 31.038876 0.000000 104.936550
LeftHand -6.691139 -0.000000 0.574823
LeftHandThumb1 -26.253704 0.000000 33.147579
RightShoulder 3.530685 41.658405 -37.883238
RightArm 66.710135 44.384003 97.365734
RightForeArm -19.657736 0.000000 106.776473
RightHand -1.445432 0.000000 7.670346
RightHandThumb1 -24.326973 -0.000000 -32.862282
LeftUpLeg -65.998806 -2.570874 0.616887
LeftLeg 110.905287 -0.000000 -0.000000
LeftFoot -29.837318 7.147772 33.543626
LeftToeBase 116.022863 -0.000000 -0.000000
RightUpLeg -90.621276 -0.602427 -8.628210
RightLeg 129.627000 -0.000000 -0.000000
RightFoot -21.201099 -4.237205 7.211484
RightToeBase -69.309551 -0.000000 0.000000
589
root 25.049997 17.127165 9.732928 485.036227 -85.532526 -420.750466
Spine 57.433064 2.964935 6.013496
Head -43.696802 -4.410447 6.093782
LeftShoulder 0.537046 6.705732 42.091090
LeftArm 119.688993 -22.171407 -122.568133
LeftForeArm 31.075291 -0.000000 104.685363
LeftHand -6.780520 -0.000000 0.610119
LeftHandThumb1 -26.253704 0.000000 33.147579
RightShoulder 3.454199 41.675401 -38.251313
RightArm 67.173388 44.699104 97.457607
RightForeArm -19.354770 0.000000 106.471916
RightHand -1.343698 -0.000000 7.542126
RightHandThumb1 -24.326973 -0.000000 -32.862282
LeftUpLeg -65.929037 -1.795701 0.430380
LeftLeg 110.651914 -0.000000 -0.000000
LeftFoot -29.434941 7.366840 33.678848
LeftToeBase 115.921487 -0.000000 -0.000000
RightUpLeg -90.853322 -0.709220 -8.434559
RightLeg 129.219671 -0.000000 -0.000000
RightFoot -21.171177 -2.988873 6.960265
RightToeBase -69.370198 -0.000000 0.000000
590
root 25.070751 17.185095 9.798481 493.471336 -84.842941 -429.230415
Spine 57.796925 3.718514 6.215512
Head -43.821518 -4.394537 5.829919
LeftShoulder 0.366444 6.702836 42.024713
LeftArm 120.034914 -22.274400 -122.880445
LeftForeArm 31.092896 0.000000 104.467018
LeftHand -6.842788 -0.000000 0.779202
LeftHandThumb1 -26.253704 0.000000 33.147579
RightShoulder 3.376376 41.814271 -38.607341
RightArm 67.454173 45.013641 97.434942
RightForeArm -19.047484 0.000000 106.169455
RightHand -1.305276 0.000000 7.490224
RightHandThumb1 -24.326973 -0.000000 -32.862282
LeftUpLeg -65.822268 -0.989522 0.302261
LeftLeg 110.405166 -0.000000 -0.000000
LeftFoot -29.143448 7.531791 33.717893
LeftToeBase 115.815450 -0.000000 -0.000000
RightUpLeg -91.000699 -0.720455 -8.202781
RightLeg 128.783759 -0.000000 -0.000000
RightFoot -21.181292 -1.701225 6.861595
RightToeBase -69.282951 -0.000000 0.000000
591
root 25.098311 17.244166 9.870376 500.064369 -84.105786 -435.736505
Spine 57.987425 4.404675 6.327087
Head -43.899751 -4.357103 5.520123
LeftShoulder 0.242002 6.625506 41.884204
LeftArm 120.330741 -22.422097 -123.125022
LeftForeArm 31.030253 -0.000000 104.200640
LeftHand -6.684627 -0.000000 1.008563
LeftHandThumb1 -26.253704 0.000000 33.147579
RightShoulder 3.359560 42.049095 -38.934949
RightArm 67.628586 45.258073 97.376822
RightForeArm -18.821123 -0.000000 105.866382
RightHand -1.274853 -0.000000 7.501020
RightHandThumb1 -24.326973 -0.000000 -32.862282
LeftUpLeg -65.868313 -0.215050 0.104360
LeftLeg 110.166112 -0.000000 -0.000000
LeftFoot -28.868469 7.766350 33.654041
LeftToeBase 115.613413 -0.000000 -0.000000
RightUpLeg -91.314573 -0.979461 -7.875458
RightLeg 128.330406 -0.000000 -0.000000
RightFoot -21.069492 -0.454725 6.505324
RightToeBase -69.637877 -0.000000 0.000000
592
root 25.115713 17.303069 9.938473 505.258213 -83.244048 -440.939095
Spine 58.310398 5.146978 6.420568
Head -44.031409 -4.290373 5.262021
LeftShoulder 0.146131 6.658179 41.749036
LeftArm 120.808329 -22.455005 -123.400294
LeftForeArm 31.001869 0.000000 103.900822
LeftHand -6.418581 0.000000 1.148682
LeftHandThumb1 -26.253704 0.000000 33.147579
RightShoulder 3.361707 42.301006 -39.233024
RightArm 67.807575 45.517507 97.327078
RightForeArm -18.626500 0.000000 105.561208
RightHand -1.185041 -0.000000 7.447260
RightHandThumb1 -24.326973 -0.000000 -32.862282
LeftUpLeg -65.792966 0.639172 -0.065361
LeftLeg 109.933072 -0.000000 -0.000000
LeftFoot -28.523619 8.024038 33.702960
LeftToeBase 115.485153 -0.000000 -0.000000
RightUpLeg -91.492231 -1.073322 -7.561681
RightLeg 127.841448 -0.000000 -0.000000
RightFoot -20.969937 0.847386 6.354563
RightToeBase -69.811954 -0.000000 0.000000
593
root 25.134457 17.360383 10.009728 509.128907 -82.358421 -444.780170
Spine 58.578685 5.899620 6.534931
Head -44.136619 -4.224281 5.090458
LeftShoulder 0.093935 6.573426 41.686358
LeftArm 121.124131 -22.501662 -123.660923
LeftForeArm 30.944975 -0.000000 103.727857
LeftHand -6.514396 -0.000000 0.856654
LeftHandThumb1 -26.253704 0.000000 33.147579
RightShoulder 3.392523 42.447795 -39.479722
RightArm 68.066700 45.814586 97.286597
RightForeArm -18.493870 -0.000000 105.264360
RightHand -1.118466 -0.000000 7.389540
RightHandThumb1 -24.326973 -0.000000 -32.862282
LeftUpLeg -65.766038 1.456422 -0.244235
LeftLeg 109.714942 -0.000000 -0.000000
LeftFoot -28.130706 8.368654 33.843911
LeftToeBase 115.299252 -0.000000 -0.000000
RightUpLeg -91.685829 -1.241143 -7.223128
RightLeg 127.353185 -0.000000 -0.000000
RightFoot -20.852042 2.272155 6.291158
RightToeBase -69.916551 -0.000000 0.000000
594
root 25.160764 17.463739 10.068138 512.041487 -81.002030 -447.232599
Spine 58.516630 7.003834 6.875070
Head -44.362174 -4.192139 4.880844
LeftShoulder 0.058564 6.447094 41.588763
LeftArm 121.478018 -22.569633 -123.911273
LeftForeArm 31.034959 -0.000000 103.609448
LeftHand -6.532085 -0.000000 0.761374
LeftHandThumb1 -26.253704 0.000000 33.147579
RightShoulder 3.422868 42.631278 -39.752595
RightArm 68.353697 46.101115 97.262008
RightForeArm -18.444014 -0.000000 104.950418
RightHand -1.017273 0.000000 7.307526
RightHandThumb1 -24.326973 -0.000000 -32.862282
LeftUpLeg -66.235182 2.667406 -0.116697
LeftLeg 109.459833 -0.000000 -0.000000
LeftFoot -27.755371 8.655147 33.970021
LeftToeBase 115.304878 -0.000000 -0.000000
RightUpLeg -90.283888 0.764310 -8.803537
RightLeg 126.124652 -0.000000 -0.000000
RightFoot -26.666866 6.840683 8.101261
RightToeBase -58.991843 -0.000000 0.000000
595
root 25.174670 17.518115 10.148284 514.266854 -80.104870 -449.160164
Spine 58.530890 7.992667 7.265330
Head -44.641660 -4.301423 5.005560
LeftShoulder 0.034524 4.353472 41.744673
LeftArm 119.797371 -22.926047 -123.505214
LeftForeArm 31.492533 -0.000000 103.738883
LeftHand -6.556305 -0.000000 0.225375
LeftHandThumb1 -26.253704 0.000000 33.147579
RightShoulder 3.016300 42.410295 -39.982745
RightArm 68.665758 46.211786 97.124276
RightForeArm -18.361132 -0.000000 104.651962
RightHand -0.934415 0.000000 7.143832
RightHandThumb1 -24.326973 -0.000000 -32.862282
LeftUpLeg -66.508166 3.407076 -0.281806
LeftLeg 109.271265 -0.000000 -0.000000
LeftFoot -27.403160 8.880330 33.920666
LeftToeBase 115.062512 -0.000000 -0.000000
RightUpLeg -90.695435 0.299217 -8.258444
RightLeg 125.644671 -0.000000 -0.000000
RightFoot -26.449909 8.308403 7.910733
RightToeBase -58.653563 -0.000000 0.000000
596
root 25.183474 17.574470 10.218396 516.114918 -79.171027 -450.971919
Spine 58.829548 8.729985 7.360569
Head -44.875194 -4.204512 4.923450
LeftShoulder -0.041860 4.327200 41.688060
LeftArm 120.176541 -22.861681 -123.707666
LeftForeArm 31.518692 -0.000000 103.740836
LeftHand -6.835961 -0.000000 0.127291
LeftHandThumb1 -26.253704 0.000000 33.147579
RightShoulder 3.057504 42.613645 -40.165199
RightArm 68.822445 46.499131 96.949335
RightForeArm -18.404991 -0.000000 104.364628
RightHand -0.802790 0.000000 7.046086
RightHandThumb1 -24.326973 -0.000000 -32.862282
LeftUpLeg -66.477014 4.208427 -0.435568
LeftLeg 109.044160 -0.000000 -0.000000
LeftFoot -27.023030 9.278199 34.206542
LeftToeBase 114.959268 -0.000000 -0.000000
RightUpLeg -90.843551 -0.025432 -7.709873
RightLeg 125.165192 -0.000000 -0.000000
RightFoot -26.200268 9.878044 7.878108
RightToeBase -58.172782 -0.000000 0.000000
597
root 25.198072 17.625082 10.297899 518.259221 -78.310633 -453.016699
Spine 59.010901 9.411354 7.229615
Head -45.118517 -4.066216 4.887471
LeftShoulder -0.174886 4.417752 41.636376
LeftArm 120.635173 -22.751440 -123.951348
LeftForeArm 31.452222 -0.000000 103.736304
LeftHand -7.016686 -0.000000 -0.054862
LeftHandThumb1 -26.253704 0.000000 33.147579
RightShoulder 3.004886 42.928169 -40.372379
RightArm 68.795552 46.577146 96.798894
RightForeArm -18.498982 0.000000 104.079778
RightHand -0.661873 -0.000000 6.811574
RightHandThumb1 -24.326973 -0.000000 -32.862282
LeftUpLeg -66.544455 4.939822 -0.730820
LeftLeg 108.846450 -0.000000 -0.000000
LeftFoot -26.736708 9.547760 34.277630
LeftToeBase 114.840062 -0.000000 -0.000000
RightUpLeg -91.131293 -0.620537 -7.153085
RightLeg 124.759520 -0.000000 -0.000000
RightFoot -25.767732 11.668909 7.733523
RightToeBase -57.702760 -0.000000 0.000000
598
root 25.207973 17.675695 10.372739 519.825246 -77.422286 -454.517795
Spine 59.247467 10.141728 7.248831
Head -45.327208 -3.972304 4.831253
LeftShoulder -0.228246 4.421198 41.648026
LeftArm 121.044708 -22.586428 -124.234625
LeftForeArm 31.573617 -0.000000 103.752042
LeftHand -7.205798 0.000000 -0.366200
LeftHandThumb1 -26.253704 0.000000 33.147579
RightShoulder 2.974359 42.979291 -40.603824
RightArm 69.008132 46.825427 96.715852
RightForeArm -18.485342 -0.000000 103.849904
RightHand -0.561378 -0.000000 6.577517
RightHandThumb1 -24.326973 -0.000000 -32.862282
LeftUpLeg -66.588346 5.694252 -0.958008
LeftLeg 108.676609 -0.000000 -0.000000
LeftFoot -26.399981 9.895389 34.444606
LeftToeBase 114.643909 -0.000000 -0.000000
RightUpLeg -91.305344 -0.923321 -6.753250
RightLeg 124.364975 -0.000000 -0.000000
RightFoot -25.544049 13.868016 8.572466
RightToeBase -56.001128 -0.000000 0.000000
